<svg viewBox="0 0 256 256" xmlns="http://www.w3.org/2000/svg"><path d="m228.646 34.7676a11.96514 11.96514 0 0 0 -12.21778-2.0752l-184.55713 72.50489a11.99915 11.99915 0 0 0 2.03467 22.93457l50.09424 10.01953v61.833a11.8137 11.8137 0 0 0 7.40771 11.08593 12.17148 12.17148 0 0 0 4.66846.94434 11.83219 11.83219 0 0 0 8.40918-3.5459l28.59619-28.59619 42.19336 37.13043a11.89844 11.89844 0 0 0 7.88819 3.00195 12.112 12.112 0 0 0 3.72265-.59082 11.89762 11.89762 0 0 0 8.01319-8.73925l37.61377-164.13288a11.97177 11.97177 0 0 0 -3.8667-11.7744zm-196.3711 81.95117a3.86572 3.86572 0 0 1 2.522-4.07617l169.17527-66.46216-116.8999 84.42725-51.59766-10.31958a3.86618 3.86618 0 0 1 -3.19971-3.56934zm66.55322 86.09375a3.99976 3.99976 0 0 1 -6.82812-2.82812v-56.26392l35.064 30.85669zm125.88672-158.05762-37.61377 164.13282a4.0003 4.0003 0 0 1 -6.5415 2.10937l-86.1543-75.8164 129.66309-93.645a3.80732 3.80732 0 0 1 .64648 3.21921z"/></svg>